<svg width="85" height="65" viewBox="0 0 85 65" fill="none" xmlns="http://www.w3.org/2000/svg">
<path d="M12.5 41.4998C7.3 43.0998 2 45.1665 0 45.9998V64.9998H85V58.9998L77 51.4971C79 45.9998 81 37.4971 77 33C82.5 14.4971 79 5.49707 74.5 0C68.1 2 62 10.9968 57.5 15.4998C51.5 13.4968 36.5 12.9968 31.5 15.4998C28 12.9998 14.5 7.99684 8 8.9998C5 15.4998 12.5 31.4968 12.5 41.4998Z" fill="#282424"/>
<path d="M52.0002 44.4973C69.1958 50.7152 67.4793 36.7078 67.1082 31.4973L67.1081 33.5855C59.539 32.7438 52.0002 31.4973 52.0002 44.4973Z" fill="#FFD915"/>
<path d="M42.814 42.9645C24.8207 55.6851 22.3385 38.8606 21.1044 32.6877L21.7719 35.1141C30.2979 31.717 38.6592 27.8593 42.814 42.9645Z" fill="#FFD915"/>
<ellipse cx="58.5" cy="39.4971" rx="5.5" ry="4.5" fill="#282424"/>
<ellipse cx="34.5" cy="39.4971" rx="5.5" ry="4.5" fill="#282424"/>
</svg>
